<?xml version="1.0" encoding="UTF-8"?>
<svg version="1.1" xmlns="http://www.w3.org/2000/svg" width="349" height="339">
<path d="M0 0 C1.33231947 -0.00853686 1.33231947 -0.00853686 2.69155449 -0.01724619 C3.66322738 -0.01842606 4.63490027 -0.01960594 5.6360178 -0.02082157 C6.671569 -0.02590939 7.70712019 -0.03099721 8.77405173 -0.03623921 C12.25526584 -0.05197558 15.73645918 -0.06049199 19.2176981 -0.06893253 C21.70948004 -0.07847017 24.20126065 -0.08836129 26.69303989 -0.09858036 C34.17981322 -0.12726869 41.66658624 -0.14705028 49.15339336 -0.16397271 C51.26959309 -0.16877031 53.38579231 -0.17375333 55.50199151 -0.17877793 C68.65474201 -0.20975617 81.80749699 -0.23643039 94.96027374 -0.25319672 C98.00588012 -0.25714597 101.05148642 -0.26114899 104.09709263 -0.2652216 C105.23249472 -0.26673414 105.23249472 -0.26673414 106.39083422 -0.26827724 C118.63919897 -0.28526618 130.88736105 -0.3263562 143.13562696 -0.37724458 C155.72302386 -0.42910973 168.31031676 -0.4581508 180.89781958 -0.4653936 C187.96019307 -0.47004511 195.02223488 -0.48468249 202.08450222 -0.5251379 C208.73381118 -0.56318222 215.38265949 -0.57038952 222.03209782 -0.55713177 C224.46646289 -0.5571856 226.90085345 -0.56743302 229.33512402 -0.5888834 C256.27410009 -0.81348404 256.27410009 -0.81348404 266.28675842 8.73986816 C267.03748658 9.53184821 267.78821474 10.32382826 268.56169224 11.1398077 C269.1095438 11.69023739 269.65739536 12.24066708 270.22184849 12.80777645 C274.48046062 17.42226146 276.52073946 22.25358158 278.56169224 28.1398077 C278.95356724 29.0885577 279.34544224 30.0373077 279.74919224 31.0148077 C282.76557628 42.6162848 281.70384643 55.43826239 281.69108677 67.33927059 C281.69244372 69.47094916 281.69422531 71.60262749 281.69639683 73.73430538 C281.70093586 79.49448612 281.69919624 85.25464884 281.69601774 91.01482987 C281.69347619 97.05815283 281.69583664 103.1014743 281.69740391 109.14479733 C281.69922023 119.29002819 281.69683325 129.43525177 281.69206333 139.58048153 C281.68662028 151.29231064 281.68838585 163.00412234 281.69388974 174.71595103 C281.69843442 184.79186688 281.69906482 194.86777751 281.69645107 204.94369406 C281.69489595 210.95274862 281.69467356 216.96179501 281.69798756 222.97084904 C281.70088602 228.62045064 281.69885436 234.2700299 281.6930933 239.9196291 C281.69177634 241.98715458 281.69214164 244.05468197 281.69435596 246.12220669 C281.72135571 273.90303538 281.72135571 273.90303538 276.56169224 284.1398077 C276.21106724 285.0885577 275.86044224 286.0373077 275.49919224 287.0148077 C274.47402249 289.33852579 273.41490743 290.42914752 271.56169224 292.1398077 C270.90169224 292.9648077 270.24169224 293.7898077 269.56169224 294.6398077 C263.6777611 301.99472162 255.18357695 305.28191857 245.9131999 306.48292947 C238.63304831 307.02838784 231.3418033 306.92491506 224.04655552 306.86856747 C221.60724524 306.87179213 219.16793725 306.87761736 216.72863865 306.88582516 C210.82906898 306.89878145 204.92996221 306.88418188 199.03048082 306.85627425 C192.14651474 306.82489632 185.26265474 306.82533867 178.37863062 306.82679199 C166.09221357 306.82828866 153.80603214 306.80094536 141.51970005 306.75723934 C129.62024237 306.71493204 117.72099178 306.69372984 105.82145786 306.6957159 C105.08755357 306.69583577 104.35364928 306.69595564 103.59750547 306.69607914 C102.86481796 306.69620021 102.13213046 306.69632127 101.3772403 306.696446 C87.78935089 306.69851885 74.20154868 306.68083373 60.61368761 306.65398635 C55.82370002 306.64496675 51.03372855 306.64175126 46.24373341 306.64038944 C39.79375285 306.63812164 33.34394565 306.61900622 26.89403439 306.58889103 C24.53100057 306.58015037 22.16794188 306.57643296 19.80489254 306.57817364 C16.57289227 306.57965319 13.34149085 306.56260772 10.10957432 306.54094601 C9.18077052 306.54559181 8.25196673 306.55023762 7.29501736 306.55502421 C-1.26663353 306.46063292 -8.95574208 305.03304923 -15.43830776 299.1398077 C-16.42830776 298.8098077 -17.41830776 298.4798077 -18.43830776 298.1398077 C-20.48127651 295.92496395 -20.48127651 295.92496395 -22.62580776 293.2023077 C-23.34123745 292.30640926 -24.05666714 291.41051083 -24.79377651 290.48746395 C-26.43830776 288.1398077 -26.43830776 288.1398077 -26.43830776 286.1398077 C-27.09830776 286.1398077 -27.75830776 286.1398077 -28.43830776 286.1398077 C-29.09087233 284.43403428 -29.73503818 282.72504681 -30.37580776 281.0148077 C-30.7354562 280.06347958 -31.09510464 279.11215145 -31.46565151 278.1319952 C-33.05951395 273.22878786 -33.56258087 268.50342763 -33.59652615 263.36487484 C-33.60631654 262.2328948 -33.61610693 261.10091476 -33.626194 259.9346323 C-33.63482483 258.08882352 -33.63482483 258.08882352 -33.64363003 256.20572567 C-33.65351546 254.89472582 -33.6634009 253.58372597 -33.67358589 252.23299885 C-33.70061983 248.62381594 -33.72163883 245.01461991 -33.74156761 241.40539169 C-33.76378238 237.56380916 -33.79147112 233.72226549 -33.81837368 229.88071346 C-33.88086907 220.77722961 -33.93418578 211.67370157 -33.98612547 202.57015228 C-34.00563923 199.17392572 -34.02574735 195.7777028 -34.04588133 192.38147986 C-34.13094296 178.02979768 -34.21377427 163.67810505 -34.28787136 149.32636166 C-34.29211312 148.50541921 -34.29635487 147.68447675 -34.30072516 146.83865726 C-34.30919619 145.19817511 -34.31766718 143.55769297 -34.32613814 141.91721082 C-34.33028302 141.11474982 -34.3344279 140.31228882 -34.33869839 139.48551083 C-34.34280519 138.68912945 -34.34691199 137.89274806 -34.35114324 137.07223392 C-34.41051753 125.62415174 -34.48458752 114.17628519 -34.5716629 102.72837543 C-34.63212024 94.7007891 -34.6797663 86.67322402 -34.71312523 78.64547825 C-34.73138854 74.31383142 -34.7558521 69.98246806 -34.79746914 65.65097713 C-34.83510915 61.70686994 -34.85386041 57.76314322 -34.85732174 53.81886196 C-34.86371522 51.79707364 -34.88975152 49.77537505 -34.91700649 47.75376034 C-34.88500232 34.32476323 -31.7788034 20.85536516 -22.29768276 10.8898077 C-15.71959851 4.80396105 -9.22124264 0.03457938 0 0 Z M40.56169224 36.1398077 C39.62583286 36.66187801 38.68997349 37.18394833 37.72575474 37.72183895 C37.01161411 38.18976864 36.29747349 38.65769833 35.56169224 39.1398077 C35.56169224 39.7998077 35.56169224 40.4598077 35.56169224 41.1398077 C34.99063755 41.40535458 34.41958286 41.67090145 33.83122349 41.9444952 C26.40749537 45.85441052 20.82007395 51.73829953 15.56169224 58.1398077 C14.74313755 59.08340145 13.92458286 60.0269952 13.08122349 60.9991827 C8.13960237 66.71685941 3.91529401 72.33973518 0.56169224 79.1398077 C-0.05319057 80.28836239 -0.66807339 81.43691708 -1.30158901 82.62027645 C-19.05456849 116.12828445 -23.32851913 158.36958837 -12.49299526 194.87027645 C-12.14494839 195.94922176 -11.79690151 197.02816708 -11.43830776 198.1398077 C-11.00904995 199.52619442 -11.00904995 199.52619442 -10.57112026 200.94058895 C-5.111993 217.24550444 3.80804852 232.40856623 15.52262974 244.94840145 C17.22339555 246.77623597 18.81462641 248.63024238 20.37419224 250.5773077 C22.31900284 252.85551441 24.02458569 254.56505192 26.56169224 256.1398077 C27.22169224 256.1398077 27.88169224 256.1398077 28.56169224 256.1398077 C28.89169224 257.1298077 29.22169224 258.1198077 29.56169224 259.1398077 C30.55169224 259.1398077 31.54169224 259.1398077 32.56169224 259.1398077 C32.89169224 260.1298077 33.22169224 261.1198077 33.56169224 262.1398077 C35.57727311 263.68289335 37.542962 265.04760873 39.68669224 266.3898077 C40.31559361 266.78530819 40.94449497 267.18080868 41.59245396 267.58829403 C74.38911533 287.76803992 114.51763118 291.48438155 151.66568089 282.79938412 C162.41593716 280.16827278 173.2376947 277.51337586 183.27604771 272.77432919 C188.14448589 271.42279417 193.36274042 273.53207133 198.13981724 274.7335577 C199.38376255 275.04164364 200.62770786 275.34972958 201.90934849 275.66715145 C204.49660816 276.31055781 207.08207192 276.96029862 209.66716099 277.61246395 C221.15182826 281.23153605 221.15182826 281.23153605 232.56169224 280.1398077 C232.77390905 273.76151353 232.72735202 267.44884908 232.11637974 261.09683895 C229.97895007 238.66852183 230.32997265 216.21721344 230.42436314 193.71103573 C230.44514096 188.21921001 230.45402381 182.72736485 230.46403599 177.23551083 C230.48522922 166.53689335 230.51918048 155.83836029 230.56169224 145.1398077 C228.17502792 143.94647554 226.74043607 144.02515809 224.07804966 144.04215145 C223.14494465 144.04545467 222.21183964 144.0487579 221.25045872 144.05216122 C219.72422634 144.06460873 219.72422634 144.06460873 218.16716099 144.0773077 C217.10999378 144.08109432 216.05282658 144.08488094 214.963624 144.08878231 C210.44182072 144.10504742 205.92010804 144.13264144 201.39836216 144.16031551 C198.09212616 144.17882011 194.78593405 144.19250562 191.47966099 144.2023077 C190.39562992 144.20553036 189.31159885 144.20875301 188.19471836 144.21207333 C180.09856128 144.20721765 172.03920147 143.92441253 163.95968723 143.40762997 C159.19197102 143.11759467 159.19197102 143.11759467 154.56169224 144.1398077 C152.85623412 147.55072393 153.62392534 151.40760038 153.81169224 155.1398077 C153.85616489 156.06245419 153.90063755 156.98510067 153.94645786 157.93570614 C154.42288474 166.57166073 155.41615139 175.12390034 156.46818638 183.70572567 C157.53483776 192.50972748 158.20387503 201.28074718 158.56169224 210.1398077 C151.37328864 213.27280661 144.22335132 215.48402716 136.56169224 217.1398077 C135.61552036 217.34734676 134.66934849 217.55488583 133.69450474 217.76871395 C115.37719013 221.31800391 95.51659879 219.55131441 79.29997349 209.77652645 C74.85013891 206.71670106 74.85013891 206.71670106 73.56169224 204.1398077 C72.90169224 204.1398077 72.24169224 204.1398077 71.56169224 204.1398077 C71.31419224 203.5829327 71.06669224 203.0260577 70.81169224 202.4523077 C69.60719722 200.04940054 69.60719722 200.04940054 67.70622349 197.8741827 C54.90615803 181.55351636 52.69551156 160.12528053 54.77995396 140.03629208 C55.84896815 132.31834778 57.91719712 125.43000729 61.47575474 118.5069952 C62.60367753 116.0482858 63.13525998 113.80264027 63.56169224 111.1398077 C64.22169224 111.1398077 64.88169224 111.1398077 65.56169224 111.1398077 C66.49211015 109.7614108 67.4168038 108.37887396 68.31559849 106.97965145 C75.78820042 95.94643668 85.64809189 89.31276631 98.56169224 86.1398077 C117.77614542 82.75429728 136.36980176 85.52371967 152.56169224 96.7023077 C155.54108842 98.80906211 158.24709596 100.82138821 160.81169224 103.41715145 C162.38997391 105.37364679 162.38997391 105.37364679 164.56169224 105.1398077 C164.89169224 106.1298077 165.22169224 107.1198077 165.56169224 108.1398077 C166.22169224 108.1398077 166.88169224 108.1398077 167.56169224 108.1398077 C167.89169224 109.1298077 168.22169224 110.1198077 168.56169224 111.1398077 C170.65692928 112.84600407 170.65692928 112.84600407 173.56169224 113.1398077 C179.55693904 110.02689109 183.18013428 105.20050294 187.31169224 99.9523077 C189.28589069 97.48455964 191.33728816 95.19118946 193.49919224 92.8898077 C197.03301317 88.96492007 200.00344652 84.76930284 202.93669224 80.3898077 C203.36586948 79.7513995 203.79504673 79.11299129 204.23722935 78.45523739 C208.31452528 72.69178811 208.31452528 72.69178811 209.24919224 66.0148077 C209.02231724 65.3960577 208.79544224 64.7773077 208.56169224 64.1398077 C208.23169224 63.1498077 207.90169224 62.1598077 207.56169224 61.1398077 C206.90169224 61.1398077 206.24169224 61.1398077 205.56169224 61.1398077 C205.15950474 59.9332452 205.15950474 59.9332452 204.74919224 58.7023077 C204.16137974 57.4338702 204.16137974 57.4338702 203.56169224 56.1398077 C202.57169224 55.8098077 201.58169224 55.4798077 200.56169224 55.1398077 C199.87634697 53.81597838 199.21331531 52.48055734 198.56169224 51.1398077 C188.37946562 39.21321557 175.69088798 32.25985713 161.56169224 26.1398077 C160.65290318 25.7376202 159.74411411 25.3354327 158.80778599 24.9210577 C121.48056146 9.10342162 74.42632268 15.01277995 40.56169224 36.1398077 Z M244.12419224 245.6398077 C243.60856724 246.1348077 243.09294224 246.6298077 242.56169224 247.1398077 C242.56169224 247.7998077 242.56169224 248.4598077 242.56169224 249.1398077 C241.90169224 249.1398077 241.24169224 249.1398077 240.56169224 249.1398077 C239.20811716 256.90028897 239.20811716 256.90028897 241.56169224 264.1398077 C244.37491307 267.31602477 246.9111201 269.88884352 251.23356724 270.5460577 C258.50449221 270.80123764 258.50449221 270.80123764 264.68669224 267.3898077 C268.1821814 263.94649001 269.48444025 261.11318272 269.87419224 256.2023077 C269.75426385 252.39987244 269.05093409 250.12689793 266.56169224 247.1398077 C259.43657479 241.31016615 252.02660014 240.77678745 244.12419224 245.6398077 Z " fill="#069A37" transform="translate(50.438307762145996,19.86019229888916)"/>
<path d="M0 0 C1.98 0.66 3.96 1.32 6 2 C6 2.66 6 3.32 6 4 C6.66 4.33 7.32 4.66 8 5 C8.57203966 19.27980474 8.57203966 19.27980474 5 24 C3 25.4375 3 25.4375 1 26 C0.01 25.67 -0.98 25.34 -2 25 C-1.05125 24.2575 -0.1025 23.515 0.875 22.75 C4.21566522 19.92377879 4.21566522 19.92377879 6 16 C6.3038859 11.21379711 6.49816849 7.24688643 4 3 C1.98264795 1.65589738 1.98264795 1.65589738 0 1 C0 0.67 0 0.34 0 0 Z " fill="#59B77A" transform="translate(313,264)"/>
<path d="M0 0 C0.33 0.99 0.66 1.98 1 3 C1.66 3.33 2.32 3.66 3 4 C2 7 2 7 -0.0625 8.1875 C-0.701875 8.455625 -1.34125 8.72375 -2 9 C-2.47050781 8.65066406 -2.94101563 8.30132812 -3.42578125 7.94140625 C-4.04839844 7.48636719 -4.67101562 7.03132813 -5.3125 6.5625 C-5.92738281 6.11003906 -6.54226562 5.65757813 -7.17578125 5.19140625 C-9.09677101 3.82663692 -9.09677101 3.82663692 -12 3 C-12 2.34 -12 1.68 -12 1 C-9.83125748 1.50603992 -8.00032373 1.99983813 -6 3 C-5.566875 2.505 -5.13375 2.01 -4.6875 1.5 C-3 0 -3 0 0 0 Z " fill="#26A64E" transform="translate(236,50)"/>
<path d="M0 0 C8.25 1.98 16.5 3.96 25 6 C25 6.33 25 6.66 25 7 C19.26556353 7.3909843 14.42553825 6.20849763 8.890625 4.734375 C5.58981498 3.89579083 2.37947409 3.38403115 -1 3 C-0.67 2.01 -0.34 1.02 0 0 Z " fill="#62BD81" transform="translate(249,294)"/>
<path d="M0 0 C2.75983251 1.37991626 3.13611769 3.04351521 4.4375 5.8125 C6.02375161 9.17893366 7.67316306 12.08975787 10 15 C9.67 15.66 9.34 16.32 9 17 C8.01 16.67 7.02 16.34 6 16 C6 15.34 6 14.68 6 14 C5.34 14 4.68 14 4 14 C3.67 14.66 3.34 15.32 3 16 C3.226875 15.2575 3.45375 14.515 3.6875 13.75 C4.08856473 10.22063035 3.09786027 9.74335573 1 7 C0.3125 3.25 0.3125 3.25 0 0 Z " fill="#3DAE62" transform="translate(46,236)"/>
<path d="M0 0 C1.65 0 3.3 0 5 0 C5 0.66 5 1.32 5 2 C3.171875 3.65625 3.171875 3.65625 0.75 5.5 C-0.03890625 6.1084375 -0.8278125 6.716875 -1.640625 7.34375 C-3.71137679 8.79739033 -5.7058932 9.94765743 -8 11 C-7.34 8.36 -6.68 5.72 -6 3 C-4.02 3 -2.04 3 0 3 C0 2.01 0 1.02 0 0 Z " fill="#44B369" transform="translate(81,59)"/>
<path d="M0 0 C1.485 0.99 1.485 0.99 3 2 C3 2.66 3 3.32 3 4 C6.82745451 5.74685308 10.12442723 6.34886333 14.3125 6.625 C15.38113281 6.69976562 16.44976562 6.77453125 17.55078125 6.8515625 C18.35902344 6.90054687 19.16726563 6.94953125 20 7 C19.67 7.66 19.34 8.32 19 9 C12.32843004 9.492165 6.3966806 9.41034211 1 5 C0 2.25 0 2.25 0 0 Z " fill="#5EB97A" transform="translate(291,283)"/>
<path d="M0 0 C1.57043101 0.01330874 3.14079971 0.03717648 4.7109375 0.0703125 C5.51273437 0.07933594 6.31453125 0.08835938 7.140625 0.09765625 C9.12252273 0.12125027 11.10426731 0.15712185 13.0859375 0.1953125 C13.0859375 1.1853125 13.0859375 2.1753125 13.0859375 3.1953125 C6.8159375 2.8653125 0.5459375 2.5353125 -5.9140625 2.1953125 C-3.9140625 0.1953125 -3.9140625 0.1953125 0 0 Z " fill="#5CBD80" transform="translate(267.9140625,161.8046875)"/>
<path d="M0 0 C3.96 0 7.92 0 12 0 C9.04137338 1.97241775 7.02597181 2.64276875 3.625 3.5 C0.73352267 4.23282621 -1.92479037 4.9673577 -4.6640625 6.15625 C-7 7 -7 7 -10 6 C-4.375 3 -4.375 3 -1 3 C-0.67 2.01 -0.34 1.02 0 0 Z " fill="#61BC82" transform="translate(120,39)"/>
<path d="M0 0 C0.578125 1.859375 0.578125 1.859375 1 4 C-0.25 6.25 -0.25 6.25 -2 8 C-2.99 8 -3.98 8 -5 8 C-5 8.99 -5 9.98 -5 11 C-6.32 11.33 -7.64 11.66 -9 12 C-7.55575365 8.76138697 -5.74227753 6.38030837 -3.375 3.75 C-2.74335938 3.04359375 -2.11171875 2.3371875 -1.4609375 1.609375 C-0.97882813 1.07828125 -0.49671875 0.5471875 0 0 Z " fill="#41B36A" transform="translate(247,108)"/>
<path d="M0 0 C0.66 0.33 1.32 0.66 2 1 C-0.625 4.875 -0.625 4.875 -4 6 C-4 6.99 -4 7.98 -4 9 C-7 11 -7 11 -10 11 C-8.55218207 7.55571735 -6.72305391 5.63869038 -3.875 3.25 C-3.15054687 2.63640625 -2.42609375 2.0228125 -1.6796875 1.390625 C-0.84824219 0.70226562 -0.84824219 0.70226562 0 0 Z " fill="#4CB673" transform="translate(35,25)"/>
<path d="M0 0 C-3.17006392 1.05668797 -4.62893931 0.93412362 -7.875 0.5 C-11.49744386 0.08161833 -14.45484739 -0.06354578 -18 1 C-17 -1 -17 -1 -14.8125 -2.1875 C-9.57189166 -3.70145352 -4.99002385 -1.78215138 0 0 Z " fill="#6CC28C" transform="translate(248,294)"/>
<path d="M0 0 C0.66 0 1.32 0 2 0 C1.01 5.61 0.02 11.22 -1 17 C-1.33 17 -1.66 17 -2 17 C-3.70159453 5.47835991 -3.70159453 5.47835991 0 0 Z " fill="#56BB7D" transform="translate(35,138)"/>
<path d="M0 0 C0.99 0.33 1.98 0.66 3 1 C0.57972468 4.0011414 -0.75270914 4.9392619 -4.5625 5.875 C-8 6 -8 6 -11 4 C-10.67 3.34 -10.34 2.68 -10 2 C-7.525 2.99 -7.525 2.99 -5 4 C-4.236875 3.319375 -3.47375 2.63875 -2.6875 1.9375 C-1.800625 1.298125 -0.91375 0.65875 0 0 Z " fill="#5DBC80" transform="translate(229,128)"/>
<path d="M0 0 C3.96 0 7.92 0 12 0 C12 0.66 12 1.32 12 2 C9.47524538 3.26237731 7.68799534 3.09856404 4.875 3.0625 C3.96492187 3.05347656 3.05484375 3.04445312 2.1171875 3.03515625 C1.41851562 3.02355469 0.71984375 3.01195312 0 3 C0 2.01 0 1.02 0 0 Z " fill="#0E9D3F" transform="translate(252,161)"/>
<path d="M0 0 C0.33 0.66 0.66 1.32 1 2 C1.66 2 2.32 2 3 2 C2.67 3.32 2.34 4.64 2 6 C0.68 6.33 -0.64 6.66 -2 7 C-2 7.99 -2 8.98 -2 10 C-2.66 10 -3.32 10 -4 10 C-2.66666667 6.66666667 -1.33333333 3.33333333 0 0 Z " fill="#48B46F" transform="translate(259,88)"/>
<path d="M0 0 C0 0.66 0 1.32 0 2 C-0.94875 2.12375 -1.8975 2.2475 -2.875 2.375 C-6.08667191 2.71687177 -6.08667191 2.71687177 -8 5 C-10.625 5.125 -10.625 5.125 -13 5 C-11.72500655 2.4500131 -10.81508648 2.34023585 -8.1875 1.375 C-7.50042969 1.11460938 -6.81335937 0.85421875 -6.10546875 0.5859375 C-4 0 -4 0 0 0 Z M-10 5 C-9.01 5.495 -9.01 5.495 -8 6 C-8.99 6.495 -8.99 6.495 -10 7 C-10 6.34 -10 5.68 -10 5 Z " fill="#60C080" transform="translate(50,20)"/>
<path d="M0 0 C1.98 0.99 1.98 0.99 4 2 C4 2.66 4 3.32 4 4 C4.61875 4.28875 5.2375 4.5775 5.875 4.875 C8 6 8 6 10 8 C6.58978257 7.21302675 3.31114834 6.12880057 0 5 C0 3.35 0 1.7 0 0 Z " fill="#55B979" transform="translate(69,269)"/>
<path d="M0 0 C-0.20625 0.94875 -0.4125 1.8975 -0.625 2.875 C-0.74875 3.90625 -0.8725 4.9375 -1 6 C-0.34 6.66 0.32 7.32 1 8 C0.01 8 -0.98 8 -2 8 C-5 4.66666667 -5 4.66666667 -5 2 C-2 0 -2 0 0 0 Z " fill="#36AC61" transform="translate(29,304)"/>
<path d="M0 0 C1.0625 1.875 1.0625 1.875 2 4 C1.67 4.66 1.34 5.32 1 6 C-1.3140622 6.73075648 -3.64828869 7.40138258 -6 8 C-4.55746343 4.63408134 -2.66735273 2.48952921 0 0 Z " fill="#46B46E" transform="translate(237,120)"/>
<path d="M0 0 C0.99 0.33 1.98 0.66 3 1 C3.33 3.31 3.66 5.62 4 8 C1.69 6.02 -0.62 4.04 -3 2 C-2.01 1.34 -1.02 0.68 0 0 Z " fill="#46B66D" transform="translate(244,62)"/>
<path d="M0 0 C0.33 0.66 0.66 1.32 1 2 C-1.39509338 4.89932357 -3.31245243 5.50168276 -7 6 C-6.3125 3.5625 -6.3125 3.5625 -5 1 C-2.375 0.1875 -2.375 0.1875 0 0 Z " fill="#63BE84" transform="translate(317,315)"/>
<path d="M0 0 C0.57234375 0.22558594 1.1446875 0.45117188 1.734375 0.68359375 C0.80625 1.11671875 -0.121875 1.54984375 -1.078125 1.99609375 C-3.73746573 3.40398002 -5.34668405 4.44482931 -7.265625 6.68359375 C-8.255625 6.35359375 -9.245625 6.02359375 -10.265625 5.68359375 C-9.02827516 4.64746342 -7.77517863 3.63011573 -6.515625 2.62109375 C-5.81953125 2.05261719 -5.1234375 1.48414062 -4.40625 0.8984375 C-2.265625 -0.31640625 -2.265625 -0.31640625 0 0 Z " fill="#5AB97E" transform="translate(139.265625,109.31640625)"/>
<path d="M0 0 C-0.25 1.875 -0.25 1.875 -1 4 C-2.875 5.3125 -2.875 5.3125 -5 6 C-5.99 5.67 -6.98 5.34 -8 5 C-2.25 0 -2.25 0 0 0 Z " fill="#4EB575" transform="translate(319,284)"/>
<path d="M0 0 C2.53408774 1.26704387 2.93209972 2.43123157 4.1875 4.9375 C4.55230469 5.64777344 4.91710938 6.35804688 5.29296875 7.08984375 C5.52628906 7.72019531 5.75960937 8.35054687 6 9 C5.67 9.66 5.34 10.32 5 11 C1.87729874 8.48169253 1.05476902 7.2738451 0.25 3.25 C0.1675 2.1775 0.085 1.105 0 0 Z " fill="#61BC82" transform="translate(46,236)"/>
<path d="M0 0 C2.31 0.33 4.62 0.66 7 1 C5.66666667 1.66666667 4.33333333 2.33333333 3 3 C2.319375 3.391875 1.63875 3.78375 0.9375 4.1875 C-1 5 -1 5 -4 4 C-2.68 3.67 -1.36 3.34 0 3 C0 2.01 0 1.02 0 0 Z " fill="#5FC283" transform="translate(200,230)"/>
<path d="M0 0 C1.4606285 2.64738916 2 3.89448334 2 7 C1.01 7.33 0.02 7.66 -1 8 C-1.66 8.99 -2.32 9.98 -3 11 C-2.44894091 7.0507432 -1.61064629 3.65079826 0 0 Z " fill="#59BE7E" transform="translate(110,140)"/>
<path d="M0 0 C1.98 0.66 3.96 1.32 6 2 C5.67 3.65 5.34 5.3 5 7 C4.34 6.67 3.68 6.34 3 6 C3 5.01 3 4.02 3 3 C2.34 3 1.68 3 1 3 C0.67 2.01 0.34 1.02 0 0 Z " fill="#4BB56D" transform="translate(255,78)"/>
<path d="M0 0 C1.485 0.99 1.485 0.99 3 2 C3 2.66 3 3.32 3 4 C5.475 4.99 5.475 4.99 8 6 C6 7 6 7 3.4375 6.375 C1 5 1 5 0.1875 2.375 C0.125625 1.59125 0.06375 0.8075 0 0 Z " fill="#66C48B" transform="translate(291,283)"/>
<path d="M0 0 C0.66 0.33 1.32 0.66 2 1 C1.67 2.98 1.34 4.96 1 7 C0.01 7 -0.98 7 -2 7 C-2.33 7.66 -2.66 8.32 -3 9 C-2.30058404 5.85262818 -1.23921302 2.97411124 0 0 Z " fill="#55BD7B" transform="translate(114,131)"/>
<path d="M0 0 C1.98 0.495 1.98 0.495 4 1 C3.67 1.99 3.34 2.98 3 4 C2.34 4 1.68 4 1 4 C0.67 4.99 0.34 5.98 0 7 C-1.33332095 4.3333581 -0.67102033 2.83319697 0 0 Z " fill="#4EB673" transform="translate(69,69)"/>
<path d="M0 0 C0.66 0 1.32 0 2 0 C2 0.66 2 1.32 2 2 C2.99 2.33 3.98 2.66 5 3 C3.1875 4.0625 3.1875 4.0625 1 5 C0.01 4.67 -0.98 4.34 -2 4 C-1.34 2.68 -0.68 1.36 0 0 Z " fill="#3AB160" transform="translate(105,44)"/>
<path d="M0 0 C0.66 0.33 1.32 0.66 2 1 C0.29374499 3.78388975 -0.47626739 4.85384206 -3.6875 5.75 C-4.8321875 5.87375 -4.8321875 5.87375 -6 6 C-4 4 -2 2 0 0 Z " fill="#5DBF83" transform="translate(35,25)"/>
</svg>
